<svg xmlns="http://www.w3.org/2000/svg" xmlns:xlink="http://www.w3.org/1999/xlink" width="500" zoomAndPan="magnify" viewBox="0 0 375 374.999991" height="500" preserveAspectRatio="xMidYMid meet" version="1.0"><defs><clipPath id="f089297e88"><path d="M 62 0 L 313.363281 0 L 313.363281 375 L 62 375 Z M 62 0 " clip-rule="nonzero"/></clipPath></defs><g clip-path="url(#f089297e88)"><path fill="#000000" d="M 152.964844 373.367188 C 146.734375 372.460938 144.472656 371.628906 142.394531 369.484375 C 140.945312 367.984375 138.824219 366.839844 137.6875 366.941406 C 134.554688 367.222656 128.152344 364.691406 128.152344 363.171875 C 128.152344 362.390625 126.125 361.527344 123.296875 361.101562 C 118.117188 360.324219 113.535156 358.164062 111.234375 355.410156 C 109.582031 353.433594 102.050781 352.351562 99.144531 353.671875 C 95.179688 355.476562 85.585938 351.878906 79.921875 346.464844 C 75.855469 342.582031 73.6875 341.359375 69.851562 340.78125 C 63.675781 339.859375 61.402344 337.273438 62.804688 332.773438 C 63.363281 330.984375 65.367188 322.40625 67.253906 313.710938 C 72.144531 291.191406 73.5625 285.566406 79.488281 265.113281 C 82.386719 255.097656 85.433594 243.921875 86.253906 240.273438 C 90.257812 222.464844 110.238281 175.402344 120.726562 159.082031 C 126.851562 149.554688 139.921875 131.101562 140.941406 130.539062 C 143.324219 129.230469 145.382812 122.269531 145.402344 115.457031 C 145.421875 109.4375 144.441406 105.550781 139.714844 92.886719 C 132.839844 74.457031 129.894531 62.535156 130.875 57.09375 C 132.652344 47.234375 132.976562 37.25 131.808594 28.210938 C 131.113281 22.828125 130.242188 14.882812 129.875 10.550781 C 129.132812 1.761719 128.371094 2.582031 138.640625 1.121094 C 142.601562 0.558594 142.90625 0.722656 144.652344 4.378906 C 152.0625 19.890625 161.539062 30.53125 170.210938 33.082031 C 182.96875 36.832031 207.695312 35.167969 218.324219 29.84375 C 223.609375 27.195312 233.273438 16.214844 237.921875 7.578125 C 241.460938 1.007812 243.640625 0.00390625 251.113281 1.492188 C 253.710938 2.011719 256 2.589844 256.203125 2.78125 C 256.40625 2.972656 255.863281 6.457031 254.992188 10.523438 C 253.503906 17.46875 252.566406 25.386719 249.910156 53.445312 C 248.574219 67.539062 246.125 78.449219 242.574219 86.101562 C 235.851562 100.589844 233.585938 108.710938 234.019531 116.761719 C 234.460938 124.875 235.628906 127.605469 246.125 144.980469 C 250.269531 151.835938 252.847656 156.84375 258.171875 168.363281 C 259.46875 171.167969 262.710938 177.59375 265.375 182.644531 C 272.921875 196.941406 292.414062 242.945312 297.03125 257.355469 C 298.515625 261.984375 300.121094 265.773438 300.597656 265.773438 C 301.074219 265.773438 301.261719 266.714844 301.011719 267.871094 C 300.761719 269.023438 301.101562 271.203125 301.765625 272.714844 C 302.433594 274.226562 303.210938 276.839844 303.5 278.523438 C 303.785156 280.203125 304.476562 282.957031 305.035156 284.640625 C 305.59375 286.324219 307.148438 295.964844 308.484375 306.0625 C 309.824219 316.160156 311.5 326.257812 312.203125 328.5 C 312.910156 330.746094 313.355469 333.226562 313.195312 334.011719 C 312.707031 336.40625 308.234375 339.109375 302.011719 340.773438 L 296.105469 342.351562 L 296.265625 348.085938 L 296.429688 353.824219 L 285.515625 356.027344 C 277.722656 357.601562 274.503906 358.699219 274.25 359.871094 C 274.050781 360.777344 272.5 361.75 270.804688 362.039062 C 266.960938 362.691406 246.695312 364.21875 243.628906 364.085938 C 242.382812 364.035156 240.605469 364.667969 239.675781 365.492188 C 238.457031 366.574219 236.359375 366.855469 232.171875 366.496094 C 225.121094 365.890625 223.492188 366.332031 223.492188 368.855469 C 223.492188 371.5 219.589844 372.246094 205.402344 372.308594 C 197.574219 372.34375 193.628906 372.738281 193.628906 373.492188 C 193.625 375.011719 163.59375 374.917969 152.964844 373.367188 Z M 152.964844 373.367188 " fill-opacity="1" fill-rule="nonzero"/></g></svg>