<svg xmlns="http://www.w3.org/2000/svg" xmlns:xlink="http://www.w3.org/1999/xlink" width="500" zoomAndPan="magnify" viewBox="0 0 375 374.999991" height="500" preserveAspectRatio="xMidYMid meet" version="1.0"><defs><clipPath id="faaf49b311"><path d="M 0 119.53125 L 375 119.53125 L 375 255.28125 L 0 255.28125 Z M 0 119.53125 " clip-rule="nonzero"/></clipPath></defs><g clip-path="url(#faaf49b311)"><path fill="#231f20" d="M 91.832031 247.484375 C 128.1875 247.484375 154.917969 210.261719 154.917969 179.167969 C 154.917969 148.09375 126.847656 128.207031 91.832031 128.207031 C 59.933594 128.207031 29.921875 146.679688 29.921875 181.390625 C 29.921875 212.46875 55.886719 247.484375 91.832031 247.484375 M 283.175781 247.484375 C 319.121094 247.484375 345.085938 212.46875 345.085938 181.390625 C 345.085938 146.679688 315.078125 128.207031 283.175781 128.207031 C 248.15625 128.207031 220.085938 148.09375 220.085938 179.167969 C 220.085938 210.261719 246.828125 247.484375 283.175781 247.484375 M 374.710938 146.234375 L 374.710938 159.144531 C 374.710938 159.144531 361.34375 161.363281 358.230469 171.164062 C 355.113281 180.953125 352.4375 255.28125 284.699219 255.28125 C 216.957031 255.28125 205.371094 172.046875 205.371094 172.046875 C 205.371094 172.046875 210.722656 168.039062 210.722656 162.261719 C 210.722656 156.550781 202.394531 152.160156 187.5 152.027344 C 172.605469 152.160156 164.277344 156.550781 164.277344 162.261719 C 164.277344 168.039062 169.625 172.046875 169.625 172.046875 C 169.625 172.046875 158.050781 255.28125 90.308594 255.28125 C 22.566406 255.28125 19.890625 180.953125 16.773438 171.164062 C 13.65625 161.363281 0.289062 159.144531 0.289062 159.144531 L 0.289062 146.234375 C 0.289062 146.234375 14.765625 146.234375 19.117188 143.898438 C 23.457031 141.5625 52.871094 119.535156 89.636719 119.535156 C 126.402344 119.535156 153.144531 142.226562 160.160156 142.226562 C 167.179688 142.226562 166.847656 136.554688 166.847656 136.554688 L 208.160156 136.554688 C 208.160156 136.554688 207.824219 142.226562 214.847656 142.226562 C 221.863281 142.226562 248.597656 119.535156 285.367188 119.535156 C 322.128906 119.535156 351.546875 141.5625 355.882812 143.898438 C 360.234375 146.234375 374.710938 146.234375 374.710938 146.234375 " fill-opacity="1" fill-rule="nonzero"/></g></svg>