<svg xmlns="http://www.w3.org/2000/svg" xmlns:xlink="http://www.w3.org/1999/xlink" width="500" zoomAndPan="magnify" viewBox="0 0 375 374.999991" height="500" preserveAspectRatio="xMidYMid meet" version="1.0"><path fill="#000000" d="M 190.152344 184.898438 C 246.789062 25.316406 218.304688 2.894531 218.304688 2.894531 C 218.304688 2.894531 215.925781 0 214.617188 0 C 213.308594 0 189.378906 0 189.378906 0 L 185.507812 0 C 185.507812 0 161.582031 0 160.273438 0 C 158.960938 0 156.585938 2.894531 156.585938 2.894531 C 156.585938 2.894531 128.097656 25.316406 184.734375 184.898438 Z M 190.152344 184.898438 " fill-opacity="1" fill-rule="nonzero"/><path fill="#000000" d="M 186.144531 181.0625 C 186.144531 181.0625 213.703125 231.214844 186.421875 327.113281 L 186.375 327.070312 C 185.226562 333.820312 166.671875 375.019531 120.101562 365.371094 C 104.851562 363.71875 105.769531 359.3125 104.851562 356.738281 C 103.933594 354.167969 104.484375 334.324219 105.035156 322.933594 C 105.589844 311.542969 105.402344 285.453125 105.402344 285.453125 C 107.789062 241.179688 103.75 231.625 103.75 231.625 C 103.382812 233.464844 100.257812 252.753906 100.441406 259.550781 C 100.628906 266.351562 98.792969 281.523438 98.972656 289.496094 C 99.15625 297.582031 97.6875 312.460938 97.503906 315.402344 C 97.320312 318.339844 102.464844 363.167969 102.832031 366.109375 C 103.195312 369.046875 101.175781 369.230469 101.175781 369.230469 C 101.175781 369.230469 61.492188 373.089844 60.210938 373.089844 C 58.925781 373.089844 58.1875 372.722656 58.1875 370.515625 C 58.1875 368.3125 52.460938 279.964844 52.460938 279.964844 C 51.632812 233.257812 60.164062 149.738281 60.164062 149.738281 C 61.539062 143.949219 60.164062 131.273438 61.816406 124.664062 C 63.46875 118.046875 63.332031 99.722656 63.609375 95.589844 C 63.882812 91.457031 66.226562 80.292969 68.292969 72.714844 C 70.359375 65.136719 71.183594 53.152344 72.152344 49.292969 C 73.117188 45.433594 77.660156 46.261719 77.660156 46.261719 C 85.378906 38.960938 137.457031 20.355469 137.457031 20.355469 C 139.113281 18.015625 148.621094 10.160156 148.621094 10.160156 C 153.996094 2.71875 159.507812 0.242188 159.507812 0.242188 C 159.507812 0.242188 148.484375 12.914062 151.238281 35.511719 C 153.992188 58.109375 173.285156 152.90625 186.234375 181.289062 Z M 186.144531 181.0625 " fill-opacity="1" fill-rule="nonzero"/><path fill="#808080" d="M 132.328125 34.765625 C 135.085938 36.054688 138.851562 38.164062 134.808594 39.636719 C 130.769531 41.105469 124.519531 42.851562 124.796875 44.6875 C 124.796875 44.6875 145.351562 150.382812 190.015625 190.316406 C 187.867188 184.160156 186.160156 181.050781 186.160156 181.050781 L 186.25 181.28125 C 173.296875 152.894531 154.007812 58.101562 151.25 35.503906 C 148.496094 12.90625 159.519531 0.226562 159.519531 0.226562 C 159.519531 0.226562 159.507812 0.234375 159.484375 0.246094 C 159.480469 0.25 159.472656 0.25 159.464844 0.253906 C 159.460938 0.253906 159.457031 0.261719 159.453125 0.265625 C 158.8125 0.570312 153.664062 3.191406 148.636719 10.152344 C 148.636719 10.152344 139.128906 18.003906 137.472656 20.347656 C 137.472656 20.347656 137.460938 20.351562 137.441406 20.359375 C 135.378906 23.179688 133.3125 26.347656 131.320312 29.902344 C 131.320312 29.898438 129.574219 33.480469 132.328125 34.765625 Z M 132.328125 34.765625 " fill-opacity="1" fill-rule="nonzero"/><path fill="#000000" d="M 188.742188 181.0625 C 188.742188 181.0625 161.183594 231.214844 188.464844 327.113281 L 188.511719 327.070312 C 189.660156 333.820312 208.214844 375.019531 254.789062 365.371094 C 270.035156 363.71875 269.117188 359.3125 270.035156 356.738281 C 270.953125 354.167969 270.40625 334.324219 269.855469 322.933594 C 269.300781 311.542969 269.488281 285.453125 269.488281 285.453125 C 267.097656 241.179688 271.136719 231.625 271.136719 231.625 C 271.507812 233.464844 274.632812 252.753906 274.445312 259.550781 C 274.261719 266.351562 276.097656 281.523438 275.914062 289.496094 C 275.730469 297.582031 277.203125 312.460938 277.386719 315.402344 C 277.570312 318.339844 272.425781 363.167969 272.058594 366.109375 C 271.691406 369.046875 273.710938 369.230469 273.710938 369.230469 C 273.710938 369.230469 313.394531 373.089844 314.679688 373.089844 C 315.964844 373.089844 316.699219 372.722656 316.699219 370.515625 C 316.699219 368.3125 322.425781 279.964844 322.425781 279.964844 C 323.253906 233.257812 314.722656 149.738281 314.722656 149.738281 C 313.34375 143.949219 314.722656 131.273438 313.070312 124.664062 C 311.417969 118.046875 311.550781 99.722656 311.277344 95.589844 C 311 91.457031 308.660156 80.292969 306.59375 72.714844 C 304.527344 65.136719 303.699219 53.152344 302.734375 49.292969 C 301.769531 45.433594 297.222656 46.261719 297.222656 46.261719 C 289.507812 38.960938 237.425781 20.355469 237.425781 20.355469 C 235.769531 18.015625 226.261719 10.160156 226.261719 10.160156 C 220.890625 2.71875 215.378906 0.242188 215.378906 0.242188 C 215.378906 0.242188 226.402344 12.914062 223.648438 35.511719 C 220.890625 58.109375 201.597656 152.90625 188.648438 181.289062 Z M 188.742188 181.0625 " fill-opacity="1" fill-rule="nonzero"/><path fill="#808080" d="M 242.558594 34.765625 C 239.804688 36.054688 236.035156 38.164062 240.078125 39.636719 C 244.121094 41.105469 250.367188 42.851562 250.089844 44.6875 C 250.089844 44.6875 229.535156 150.382812 184.875 190.316406 C 187.019531 184.160156 188.730469 181.050781 188.730469 181.050781 L 188.640625 181.28125 C 201.589844 152.894531 220.878906 58.101562 223.636719 35.503906 C 226.394531 12.90625 215.367188 0.226562 215.367188 0.226562 C 215.367188 0.226562 215.382812 0.234375 215.402344 0.246094 C 215.410156 0.25 215.414062 0.25 215.425781 0.253906 C 215.429688 0.253906 215.433594 0.261719 215.4375 0.265625 C 216.078125 0.570312 221.226562 3.191406 226.253906 10.152344 C 226.253906 10.152344 235.761719 18.003906 237.417969 20.347656 C 237.417969 20.347656 237.429688 20.351562 237.449219 20.359375 C 239.511719 23.179688 241.574219 26.347656 243.570312 29.902344 C 243.570312 29.898438 245.3125 33.480469 242.558594 34.765625 Z M 242.558594 34.765625 " fill-opacity="1" fill-rule="nonzero"/><path fill="#000000" d="M 188.261719 208.390625 C 185.289062 208.390625 182.875 210.796875 182.875 213.769531 C 182.875 216.742188 185.289062 219.152344 188.261719 219.152344 C 191.234375 219.152344 193.640625 216.742188 193.640625 213.769531 C 193.640625 210.796875 191.234375 208.390625 188.261719 208.390625 Z M 186.902344 215.726562 C 186.554688 215.726562 186.269531 215.445312 186.269531 215.097656 C 186.269531 214.753906 186.554688 214.46875 186.902344 214.46875 C 187.246094 214.46875 187.535156 214.753906 187.535156 215.097656 C 187.535156 215.445312 187.246094 215.726562 186.902344 215.726562 Z M 186.902344 213.0625 C 186.554688 213.0625 186.269531 212.785156 186.269531 212.429688 C 186.269531 212.085938 186.554688 211.800781 186.902344 211.800781 C 187.246094 211.800781 187.535156 212.085938 187.535156 212.429688 C 187.535156 212.785156 187.246094 213.0625 186.902344 213.0625 Z M 189.613281 215.726562 C 189.265625 215.726562 188.992188 215.445312 188.992188 215.097656 C 188.992188 214.753906 189.269531 214.46875 189.613281 214.46875 C 189.964844 214.46875 190.242188 214.753906 190.242188 215.097656 C 190.246094 215.445312 189.964844 215.726562 189.613281 215.726562 Z M 189.613281 213.0625 C 189.265625 213.0625 188.992188 212.785156 188.992188 212.429688 C 188.992188 212.085938 189.269531 211.800781 189.613281 211.800781 C 189.964844 211.800781 190.242188 212.085938 190.242188 212.429688 C 190.246094 212.785156 189.964844 213.0625 189.613281 213.0625 Z M 189.613281 213.0625 " fill-opacity="1" fill-rule="nonzero"/><path fill="#000000" d="M 188.261719 273.3125 C 185.289062 273.3125 182.875 275.71875 182.875 278.691406 C 182.875 281.664062 185.289062 284.078125 188.261719 284.078125 C 191.234375 284.078125 193.640625 281.664062 193.640625 278.691406 C 193.640625 275.71875 191.234375 273.3125 188.261719 273.3125 Z M 186.902344 280.652344 C 186.554688 280.652344 186.269531 280.375 186.269531 280.023438 C 186.269531 279.675781 186.554688 279.398438 186.902344 279.398438 C 187.246094 279.398438 187.535156 279.675781 187.535156 280.023438 C 187.535156 280.375 187.246094 280.652344 186.902344 280.652344 Z M 186.902344 277.984375 C 186.554688 277.984375 186.269531 277.707031 186.269531 277.355469 C 186.269531 277.011719 186.554688 276.726562 186.902344 276.726562 C 187.246094 276.726562 187.535156 277.011719 187.535156 277.355469 C 187.535156 277.707031 187.246094 277.984375 186.902344 277.984375 Z M 189.613281 280.652344 C 189.265625 280.652344 188.992188 280.375 188.992188 280.023438 C 188.992188 279.675781 189.269531 279.398438 189.613281 279.398438 C 189.964844 279.398438 190.242188 279.675781 190.242188 280.023438 C 190.246094 280.375 189.964844 280.652344 189.613281 280.652344 Z M 189.613281 277.984375 C 189.265625 277.984375 188.992188 277.707031 188.992188 277.355469 C 188.992188 277.011719 189.269531 276.726562 189.613281 276.726562 C 189.964844 276.726562 190.242188 277.011719 190.242188 277.355469 C 190.246094 277.707031 189.964844 277.984375 189.613281 277.984375 Z M 189.613281 277.984375 " fill-opacity="1" fill-rule="nonzero"/></svg>