<svg xmlns="http://www.w3.org/2000/svg" xmlns:xlink="http://www.w3.org/1999/xlink" width="500" zoomAndPan="magnify" viewBox="0 0 375 374.999991" height="500" preserveAspectRatio="xMidYMid meet" version="1.0"><path fill="#000000" d="M 337.265625 227.183594 C 349.992188 225.425781 362.597656 223.046875 374.976562 219.792969 C 374.925781 217.464844 374.691406 215.117188 374.28125 212.753906 C 371.859375 199.019531 360.527344 188.410156 346.316406 186.546875 C 326.6875 183.972656 294.316406 178.945312 271.625 170.359375 C 267.203125 174.046875 262.769531 177.738281 258.347656 181.421875 C 257.183594 182.390625 256.019531 183.359375 254.859375 184.328125 C 253.398438 185.550781 251.875 186.382812 249.902344 186.382812 C 248.183594 186.382812 246.128906 185.617188 244.945312 184.328125 C 242.570312 181.738281 241.929688 176.90625 244.945312 174.398438 C 249.128906 170.914062 253.3125 167.425781 257.5 163.945312 C 250.613281 160.363281 243.890625 156.328125 237.363281 152.082031 C 230.8125 157.535156 224.265625 162.984375 217.71875 168.441406 C 216.558594 169.40625 215.394531 170.375 214.230469 171.34375 C 212.769531 172.566406 211.246094 173.398438 209.277344 173.398438 C 207.558594 173.398438 205.503906 172.632812 204.320312 171.34375 C 201.941406 168.753906 201.304688 163.921875 204.320312 161.414062 C 211.332031 155.585938 218.332031 149.746094 225.34375 143.90625 C 219.179688 139.5625 213.242188 135.179688 207.558594 130.976562 C 199.414062 137.761719 191.265625 144.546875 183.121094 151.328125 C 181.957031 152.296875 180.796875 153.265625 179.632812 154.234375 C 178.171875 155.457031 176.648438 156.289062 174.675781 156.289062 C 172.960938 156.289062 170.90625 155.523438 169.722656 154.234375 C 167.34375 151.644531 166.707031 146.8125 169.722656 144.304688 C 177.917969 137.484375 186.105469 130.664062 194.292969 123.839844 C 194.847656 123.375 195.402344 122.917969 195.957031 122.453125 C 187.003906 116 178.875 110.566406 171.769531 107.308594 C 149.175781 96.945312 134.214844 133.621094 106.671875 139.554688 C 79.132812 145.492188 58.625 122.453125 40.453125 126.0625 C 22.285156 129.671875 23.859375 162.675781 9.574219 195.648438 C 7.132812 201.316406 5.277344 206.898438 3.890625 212.273438 C 9.34375 207.5 15.28125 203.289062 21.78125 199.898438 C 34.515625 193.25 48.546875 189.933594 62.859375 189.355469 C 92.457031 188.160156 121.722656 197.644531 149.527344 206.667969 C 164.300781 211.460938 179.027344 216.421875 193.992188 220.609375 C 201.402344 222.679688 208.871094 224.5625 216.414062 226.101562 C 220.117188 226.859375 223.84375 227.535156 227.578125 228.105469 C 228.480469 228.25 229.386719 228.375 230.292969 228.503906 C 230.457031 228.527344 230.585938 228.542969 230.675781 228.558594 C 231.015625 228.601562 231.351562 228.640625 231.679688 228.675781 C 233.578125 228.910156 235.46875 229.113281 237.363281 229.277344 C 256.117188 230.933594 275.03125 231.355469 293.84375 230.742188 C 301.898438 230.46875 309.933594 229.996094 317.957031 229.308594 C 321.648438 228.992188 325.328125 228.625 329.011719 228.210938 C 330.570312 228.039062 332.136719 227.851562 333.707031 227.65625 C 334.5 227.550781 335.304688 227.453125 336.097656 227.347656 C 336.433594 227.304688 336.976562 227.332031 337.273438 227.191406 C 336.269531 227.324219 336.039062 227.355469 336.578125 227.28125 C 336.800781 227.242188 337.035156 227.214844 337.265625 227.183594 Z M 0.246094 236.226562 C 0.539062 235.84375 0.832031 235.484375 1.125 235.121094 C 2.421875 233.5625 3.765625 232.03125 5.136719 230.53125 C 7.738281 227.707031 10.492188 225.015625 13.386719 222.5 C 14.21875 221.78125 15.058594 221.066406 15.917969 220.375 C 16.25 220.105469 16.59375 219.84375 16.925781 219.574219 C 16.96875 219.542969 17.007812 219.515625 17.050781 219.476562 C 18.46875 218.425781 19.894531 217.398438 21.371094 216.429688 C 24.207031 214.554688 27.152344 212.84375 30.195312 211.328125 C 31.089844 210.882812 31.988281 210.457031 32.894531 210.042969 C 33.195312 209.910156 33.503906 209.773438 33.804688 209.636719 C 33.824219 209.628906 33.832031 209.625 33.855469 209.617188 C 35.257812 209.074219 36.644531 208.503906 38.070312 208.011719 C 41.195312 206.914062 44.398438 206.015625 47.628906 205.300781 C 49.28125 204.933594 50.945312 204.617188 52.617188 204.339844 C 53.089844 204.265625 55.714844 203.648438 53.628906 204.167969 C 54.386719 203.980469 55.265625 203.964844 56.042969 203.882812 C 62.671875 203.175781 69.359375 203.148438 76.011719 203.597656 C 77.78125 203.71875 79.542969 203.867188 81.304688 204.054688 C 82.152344 204.144531 83 204.234375 83.839844 204.339844 C 84.261719 204.394531 84.679688 204.453125 85.101562 204.496094 C 88.519531 204.992188 91.929688 205.554688 95.328125 206.214844 C 102.566406 207.621094 109.726562 209.390625 116.835938 211.355469 C 131.53125 215.417969 145.980469 220.285156 160.476562 224.992188 C 175.105469 229.742188 189.792969 234.378906 204.777344 237.90625 C 221.378906 241.808594 238.128906 243.683594 255.152344 244.488281 C 286.894531 245.996094 318.804688 244.464844 350.179688 239.363281 C 357.6875 238.140625 365.296875 236.8125 372.773438 235.023438 C 367.765625 250.445312 354.769531 262.902344 337.53125 266.875 C 323.824219 270.03125 300.335938 272.417969 276.351562 273.613281 C 183.257812 278.25 178.449219 259.535156 112.550781 267.835938 C 63.378906 274.03125 25.660156 266.128906 9.6875 261.726562 C 4.445312 260.277344 0.699219 255.804688 0.335938 250.523438 C 0.0820312 246.738281 -0.046875 241.863281 0.246094 236.226562 Z M 0.246094 236.226562 " fill-opacity="1" fill-rule="nonzero"/></svg>